<mxfile host="app.diagrams.net" modified="2021-09-15T14:01:37.168Z" agent="5.0 (Windows NT 10.0; Win64; x64) AppleWebKit/537.36 (KHTML, like Gecko) Chrome/93.0.4577.63 Safari/537.36" etag="sW0xih6KGaSmkkjCBQMd" version="14.9.2" type="github">
  <diagram id="Ov9-HLkATnMB5ZsLImXx" name="Page-1">
    <mxGraphModel dx="1185" dy="588" grid="1" gridSize="10" guides="1" tooltips="1" connect="1" arrows="1" fold="1" page="1" pageScale="1" pageWidth="827" pageHeight="1169" math="0" shadow="0">
      <root>
        <mxCell id="0" />
        <mxCell id="1" parent="0" />
        <mxCell id="xSnEPf1reJy86Qc8V-Li-1" value="&lt;font style=&quot;font-size: 24px&quot;&gt;Page Chat&lt;/font&gt;" style="text;html=1;strokeColor=none;fillColor=none;align=center;verticalAlign=middle;whiteSpace=wrap;rounded=0;" vertex="1" parent="1">
          <mxGeometry x="344" y="50" width="140" height="40" as="geometry" />
        </mxCell>
        <mxCell id="xSnEPf1reJy86Qc8V-Li-2" value="Utilisateur élève ou professeur connecté" style="shape=umlActor;verticalLabelPosition=bottom;verticalAlign=top;html=1;outlineConnect=0;" vertex="1" parent="1">
          <mxGeometry x="389" y="110" width="50" height="100" as="geometry" />
        </mxCell>
        <mxCell id="xSnEPf1reJy86Qc8V-Li-6" style="edgeStyle=orthogonalEdgeStyle;rounded=0;orthogonalLoop=1;jettySize=auto;html=1;entryX=0;entryY=0.5;entryDx=0;entryDy=0;" edge="1" parent="1" source="xSnEPf1reJy86Qc8V-Li-3" target="xSnEPf1reJy86Qc8V-Li-5">
          <mxGeometry relative="1" as="geometry" />
        </mxCell>
        <mxCell id="xSnEPf1reJy86Qc8V-Li-13" style="edgeStyle=orthogonalEdgeStyle;rounded=0;orthogonalLoop=1;jettySize=auto;html=1;entryX=0.5;entryY=0;entryDx=0;entryDy=0;" edge="1" parent="1" source="xSnEPf1reJy86Qc8V-Li-3" target="xSnEPf1reJy86Qc8V-Li-12">
          <mxGeometry relative="1" as="geometry" />
        </mxCell>
        <mxCell id="xSnEPf1reJy86Qc8V-Li-3" value="Ma messagerie s&#39;affiche.&lt;br&gt;Mes contacts sur la partie gauche,&lt;br&gt;la conversation du contact sélectionné sur la partie droite.&lt;br&gt;&amp;nbsp;J&#39;ai de nouveaux messages &lt;br&gt;non lus ?" style="ellipse;whiteSpace=wrap;html=1;" vertex="1" parent="1">
          <mxGeometry x="310" y="280" width="210" height="130" as="geometry" />
        </mxCell>
        <mxCell id="xSnEPf1reJy86Qc8V-Li-4" value="" style="endArrow=none;dashed=1;html=1;dashPattern=1 3;strokeWidth=2;exitX=0.5;exitY=0;exitDx=0;exitDy=0;" edge="1" parent="1" source="xSnEPf1reJy86Qc8V-Li-3" target="xSnEPf1reJy86Qc8V-Li-2">
          <mxGeometry width="50" height="50" relative="1" as="geometry">
            <mxPoint x="390" y="360" as="sourcePoint" />
            <mxPoint x="390" y="430" as="targetPoint" />
          </mxGeometry>
        </mxCell>
        <mxCell id="xSnEPf1reJy86Qc8V-Li-5" value="Le contact m&#39;ayant envoyé un message non encore lu apparaît en surbrillance dans la liste de mes contacts.&lt;br&gt;Je clique dessus pour accéder à notre conversation et lire les nouveaux messages" style="rounded=1;whiteSpace=wrap;html=1;" vertex="1" parent="1">
          <mxGeometry x="600" y="280" width="200" height="130" as="geometry" />
        </mxCell>
        <mxCell id="xSnEPf1reJy86Qc8V-Li-7" value="Oui" style="text;html=1;align=center;verticalAlign=middle;resizable=0;points=[];autosize=1;strokeColor=none;" vertex="1" parent="1">
          <mxGeometry x="545" y="320" width="30" height="20" as="geometry" />
        </mxCell>
        <mxCell id="xSnEPf1reJy86Qc8V-Li-15" style="edgeStyle=orthogonalEdgeStyle;rounded=0;orthogonalLoop=1;jettySize=auto;html=1;" edge="1" parent="1" source="xSnEPf1reJy86Qc8V-Li-12" target="xSnEPf1reJy86Qc8V-Li-16">
          <mxGeometry relative="1" as="geometry">
            <mxPoint x="600" y="510" as="targetPoint" />
          </mxGeometry>
        </mxCell>
        <mxCell id="xSnEPf1reJy86Qc8V-Li-12" value="Ma messagerie n&#39;affiche &lt;br&gt;donc pas de nouveau message. Je veux écrire un nouveau message&lt;br&gt;&amp;nbsp;à l&#39;un de mes contacts ?" style="ellipse;whiteSpace=wrap;html=1;" vertex="1" parent="1">
          <mxGeometry x="310" y="465" width="210" height="90" as="geometry" />
        </mxCell>
        <mxCell id="xSnEPf1reJy86Qc8V-Li-14" value="Non" style="text;html=1;align=center;verticalAlign=middle;resizable=0;points=[];autosize=1;strokeColor=none;" vertex="1" parent="1">
          <mxGeometry x="410" y="430" width="40" height="20" as="geometry" />
        </mxCell>
        <mxCell id="xSnEPf1reJy86Qc8V-Li-16" value="Je clique sur celui-ci, notre conversation et son historique (si il y en a) apparaissent dans la section correspondante. Je saisis mon message dans le champ prévu à cet effet" style="rounded=1;whiteSpace=wrap;html=1;" vertex="1" parent="1">
          <mxGeometry x="600" y="460" width="200" height="100" as="geometry" />
        </mxCell>
        <mxCell id="xSnEPf1reJy86Qc8V-Li-17" value="Oui" style="text;html=1;align=center;verticalAlign=middle;resizable=0;points=[];autosize=1;strokeColor=none;" vertex="1" parent="1">
          <mxGeometry x="545" y="490" width="30" height="20" as="geometry" />
        </mxCell>
        <mxCell id="xSnEPf1reJy86Qc8V-Li-18" value="" style="endArrow=none;dashed=1;html=1;dashPattern=1 3;strokeWidth=2;entryX=0.5;entryY=1;entryDx=0;entryDy=0;" edge="1" parent="1" target="xSnEPf1reJy86Qc8V-Li-12">
          <mxGeometry width="50" height="50" relative="1" as="geometry">
            <mxPoint x="415" y="620" as="sourcePoint" />
            <mxPoint x="460" y="490" as="targetPoint" />
          </mxGeometry>
        </mxCell>
        <mxCell id="xSnEPf1reJy86Qc8V-Li-21" style="edgeStyle=orthogonalEdgeStyle;rounded=0;orthogonalLoop=1;jettySize=auto;html=1;entryX=0;entryY=0.5;entryDx=0;entryDy=0;" edge="1" parent="1" source="xSnEPf1reJy86Qc8V-Li-19" target="xSnEPf1reJy86Qc8V-Li-20">
          <mxGeometry relative="1" as="geometry" />
        </mxCell>
        <mxCell id="xSnEPf1reJy86Qc8V-Li-19" value="Je vaux supprimer l&#39;un &lt;br&gt;de mes contacts?" style="ellipse;whiteSpace=wrap;html=1;" vertex="1" parent="1">
          <mxGeometry x="340" y="620" width="150" height="60" as="geometry" />
        </mxCell>
        <mxCell id="xSnEPf1reJy86Qc8V-Li-20" value="Je clique sur la croix rouge située dans la vignette correspondant à celui-ci dans la section gauche de la page regroupant la liste de mes contacts" style="rounded=1;whiteSpace=wrap;html=1;" vertex="1" parent="1">
          <mxGeometry x="600" y="610" width="200" height="80" as="geometry" />
        </mxCell>
        <mxCell id="xSnEPf1reJy86Qc8V-Li-22" value="Oui" style="text;html=1;align=center;verticalAlign=middle;resizable=0;points=[];autosize=1;strokeColor=none;" vertex="1" parent="1">
          <mxGeometry x="545" y="630" width="30" height="20" as="geometry" />
        </mxCell>
        <mxCell id="xSnEPf1reJy86Qc8V-Li-28" style="edgeStyle=orthogonalEdgeStyle;rounded=0;orthogonalLoop=1;jettySize=auto;html=1;entryX=0;entryY=0.5;entryDx=0;entryDy=0;" edge="1" parent="1" source="xSnEPf1reJy86Qc8V-Li-24" target="xSnEPf1reJy86Qc8V-Li-27">
          <mxGeometry relative="1" as="geometry" />
        </mxCell>
        <mxCell id="xSnEPf1reJy86Qc8V-Li-24" value="Je vaux ajouter un &lt;br&gt;nouveau contact?" style="ellipse;whiteSpace=wrap;html=1;" vertex="1" parent="1">
          <mxGeometry x="339" y="740" width="150" height="60" as="geometry" />
        </mxCell>
        <mxCell id="xSnEPf1reJy86Qc8V-Li-25" value="" style="endArrow=none;dashed=1;html=1;dashPattern=1 3;strokeWidth=2;entryX=0.5;entryY=1;entryDx=0;entryDy=0;exitX=0.5;exitY=0;exitDx=0;exitDy=0;" edge="1" parent="1" source="xSnEPf1reJy86Qc8V-Li-24">
          <mxGeometry width="50" height="50" relative="1" as="geometry">
            <mxPoint x="415" y="730" as="sourcePoint" />
            <mxPoint x="414.58" y="680" as="targetPoint" />
          </mxGeometry>
        </mxCell>
        <mxCell id="xSnEPf1reJy86Qc8V-Li-27" value="Je clique sur le bouton &quot;ajouter un nouveau contact&quot; situé en bas de la section gauche de la page regroupant la liste de mes contacts" style="rounded=1;whiteSpace=wrap;html=1;" vertex="1" parent="1">
          <mxGeometry x="600" y="730" width="200" height="80" as="geometry" />
        </mxCell>
        <mxCell id="xSnEPf1reJy86Qc8V-Li-29" value="Oui" style="text;html=1;align=center;verticalAlign=middle;resizable=0;points=[];autosize=1;strokeColor=none;" vertex="1" parent="1">
          <mxGeometry x="545" y="750" width="30" height="20" as="geometry" />
        </mxCell>
      </root>
    </mxGraphModel>
  </diagram>
</mxfile>
